# MagicaVoxel @ Ephtracy

# material
mtllib pig.mtl
usemtl palette

# normals
vn -1 0 0
vn 1 0 0
vn 0 0 1
vn 0 0 -1
vn 0 -1 0
vn 0 1 0

# texcoords
vt 0.00585938 0.5
vt 0.0214844 0.5
vt 0.0527344 0.5
vt 0.662109 0.5

# verts
v -9.5 7 3
v -9.5 7 -3
v -9.5 8 2
v -9.5 8 1
v -9.5 8 -1
v -9.5 8 -2
v -9.5 9 2
v -9.5 9 1
v -9.5 9 -1
v -9.5 9 -2
v -9.5 10 3
v -9.5 10 -3
v -8.5 8 2
v -8.5 8 1
v -8.5 8 -1
v -8.5 8 -2
v -8.5 9 2
v -8.5 9 1
v -8.5 9 -1
v -8.5 9 -2
v -8.5 11 5
v -8.5 11 3
v -8.5 11 1
v -8.5 11 -1
v -8.5 11 -3
v -8.5 11 -5
v -8.5 13 5
v -8.5 13 3
v -8.5 13 1
v -8.5 13 -1
v -8.5 13 -3
v -8.5 13 -5
v -8.5 15 5
v -8.5 15 1
v -8.5 15 -1
v -8.5 15 -5
v -7.5 2 8
v -7.5 2 -8
v -7.5 3 7
v -7.5 3 6
v -7.5 3 3
v -7.5 3 -3
v -7.5 4 8
v -7.5 4 7
v -7.5 4 6
v -7.5 4 5
v -7.5 4 4
v -7.5 4 3
v -7.5 4 2
v -7.5 4 -2
v -7.5 4 -3
v -7.5 4 -5
v -7.5 4 -7
v -7.5 4 -8
v -7.5 5 7
v -7.5 5 6
v -7.5 5 5
v -7.5 5 4
v -7.5 5 3
v -7.5 5 2
v -7.5 5 -2
v -7.5 5 -3
v -7.5 5 -5
v -7.5 5 -7
v -7.5 6 6
v -7.5 6 5
v -7.5 6 3
v -7.5 6 2
v -7.5 6 -2
v -7.5 6 -3
v -7.5 6 -5
v -7.5 6 -6
v -7.5 7 7
v -7.5 7 5
v -7.5 7 3
v -7.5 7 -3
v -7.5 7 -5
v -7.5 7 -6
v -7.5 10 3
v -7.5 10 -3
v -7.5 11 5
v -7.5 11 3
v -7.5 11 1
v -7.5 11 -1
v -7.5 11 -3
v -7.5 11 -5
v -7.5 13 5
v -7.5 13 1
v -7.5 13 -1
v -7.5 13 -5
v -7.5 15 5
v -7.5 15 1
v -7.5 15 -1
v -7.5 15 -5
v -7.5 16 10
v -7.5 16 8
v -7.5 16 -8
v -7.5 16 -10
v -7.5 17 9
v -7.5 17 7
v -7.5 17 -7
v -7.5 17 -9
v -7.5 18 6
v -7.5 18 -6
v -7.5 19 9
v -7.5 19 7
v -7.5 19 -7
v -7.5 19 -9
v -7.5 20 10
v -7.5 20 6
v -7.5 20 -6
v -7.5 20 -10
v -6.5 0 7
v -6.5 0 4
v -6.5 0 -4
v -6.5 0 -7
v -6.5 2 7
v -6.5 2 4
v -6.5 2 -4
v -6.5 2 -7
v -6.5 17 9
v -6.5 17 7
v -6.5 17 -7
v -6.5 17 -9
v -6.5 19 9
v -6.5 19 7
v -6.5 19 -7
v -6.5 19 -9
v -5.5 4 2
v -5.5 4 -2
v -5.5 5 3
v -5.5 5 2
v -5.5 5 1
v -5.5 5 -1
v -5.5 5 -2
v -5.5 5 -3
v -5.5 6 3
v -5.5 6 2
v -5.5 6 1
v -5.5 6 -1
v -5.5 6 -2
v -5.5 6 -3
v 4.5 0 7
v 4.5 0 4
v 4.5 0 -4
v 4.5 0 -7
v 4.5 2 7
v 4.5 2 4
v 4.5 2 -4
v 4.5 2 -7
v 7.5 18 -0
v 7.5 18 -2
v 7.5 19 -0
v 7.5 19 -2
v -6.5 5 1
v -6.5 5 -1
v -6.5 6 1
v -6.5 6 -1
v -5.5 16 10
v -5.5 16 8
v -5.5 16 -8
v -5.5 16 -10
v -5.5 17 9
v -5.5 17 8
v -5.5 17 -8
v -5.5 17 -9
v -5.5 18 8
v -5.5 18 7
v -5.5 18 6
v -5.5 18 -6
v -5.5 18 -7
v -5.5 18 -8
v -5.5 19 9
v -5.5 19 7
v -5.5 19 -7
v -5.5 19 -9
v -5.5 20 10
v -5.5 20 6
v -5.5 20 -6
v -5.5 20 -10
v -3.5 0 7
v -3.5 0 4
v -3.5 0 -4
v -3.5 0 -7
v -3.5 2 7
v -3.5 2 4
v -3.5 2 -4
v -3.5 2 -7
v 7.5 0 7
v 7.5 0 4
v 7.5 0 -4
v 7.5 0 -7
v 7.5 2 7
v 7.5 2 4
v 7.5 2 -4
v 7.5 2 -7
v 8.5 2 8
v 8.5 2 -8
v 8.5 3 3
v 8.5 3 2
v 8.5 3 -4
v 8.5 3 -5
v 8.5 4 8
v 8.5 4 5
v 8.5 4 2
v 8.5 4 1
v 8.5 4 -1
v 8.5 4 -3
v 8.5 4 -4
v 8.5 4 -5
v 8.5 4 -7
v 8.5 5 6
v 8.5 5 5
v 8.5 5 3
v 8.5 5 1
v 8.5 5 -1
v 8.5 5 -3
v 8.5 5 -5
v 8.5 6 6
v 8.5 6 5
v 8.5 6 4
v 8.5 6 3
v 8.5 7 4
v 8.5 7 3
v 8.5 7 -7
v 8.5 7 -8
v 8.5 16 1
v 8.5 16 -2
v 8.5 18 8
v 8.5 18 1
v 8.5 18 -2
v 8.5 18 -8
v 9.5 16 1
v 9.5 16 -2
v 9.5 18 1
v 9.5 18 -0
v 9.5 19 -0
v 9.5 19 -2
v -7.5 16 10
v -7.5 20 10
v -5.5 16 10
v -5.5 20 10
v -7.5 2 8
v -7.5 4 8
v -7.5 16 8
v -6.5 4 8
v -6.5 5 8
v -6.5 6 8
v -6.5 7 8
v -5.5 4 8
v -5.5 5 8
v -5.5 6 8
v -5.5 7 8
v -5.5 16 8
v -5.5 17 8
v -5.5 18 8
v -4.5 4 8
v -4.5 5 8
v -3.5 4 8
v -3.5 5 8
v -3.5 6 8
v -2.5 5 8
v -2.5 6 8
v -1.5 4 8
v -1.5 5 8
v -0.5 4 8
v -0.5 5 8
v 0.5 3 8
v 0.5 4 8
v 1.5 5 8
v 1.5 6 8
v 2.5 3 8
v 2.5 5 8
v 2.5 6 8
v 3.5 4 8
v 3.5 5 8
v 3.5 6 8
v 3.5 7 8
v 4.5 4 8
v 4.5 5 8
v 4.5 6 8
v 4.5 7 8
v 5.5 5 8
v 5.5 6 8
v 6.5 3 8
v 6.5 6 8
v 7.5 3 8
v 7.5 4 8
v 8.5 2 8
v 8.5 4 8
v 8.5 18 8
v -7.5 17 7
v -7.5 19 7
v -6.5 0 7
v -6.5 2 7
v -6.5 17 7
v -6.5 19 7
v -3.5 0 7
v -3.5 2 7
v 4.5 0 7
v 4.5 2 7
v 7.5 0 7
v 7.5 2 7
v -8.5 11 5
v -8.5 13 5
v -8.5 15 5
v -7.5 11 5
v -7.5 13 5
v -7.5 15 5
v -9.5 7 3
v -9.5 10 3
v -7.5 7 3
v -7.5 10 3
v -7.5 5 2
v -7.5 6 2
v -6.5 5 2
v -5.5 5 2
v -5.5 6 2
v -9.5 8 1
v -9.5 9 1
v -8.5 8 1
v -8.5 9 1
v 8.5 16 1
v 8.5 18 1
v 9.5 16 1
v 9.5 18 1
v 7.5 18 -0
v 7.5 19 -0
v 9.5 18 -0
v 9.5 19 -0
v -8.5 11 -1
v -8.5 13 -1
v -8.5 15 -1
v -7.5 11 -1
v -7.5 13 -1
v -7.5 15 -1
v -6.5 5 -1
v -6.5 6 -1
v -5.5 5 -1
v -5.5 6 -1
v -9.5 8 -2
v -9.5 9 -2
v -8.5 8 -2
v -8.5 9 -2
v -7.5 4 -2
v -7.5 5 -2
v -6.5 4 -2
v -6.5 5 -2
v -5.5 4 -2
v -5.5 5 -2
v -7.5 5 -3
v -7.5 6 -3
v -6.5 5 -3
v -6.5 6 -3
v -5.5 5 -3
v -5.5 6 -3
v -6.5 0 -4
v -6.5 2 -4
v -3.5 0 -4
v -3.5 2 -4
v 4.5 0 -4
v 4.5 2 -4
v 7.5 0 -4
v 7.5 2 -4
v -7.5 18 -6
v -7.5 20 -6
v -5.5 18 -6
v -5.5 20 -6
v -7.5 17 -9
v -7.5 19 -9
v -6.5 17 -9
v -6.5 19 -9
v -7.5 17 9
v -7.5 19 9
v -6.5 17 9
v -6.5 19 9
v -7.5 18 6
v -7.5 20 6
v -5.5 18 6
v -5.5 20 6
v -6.5 0 4
v -6.5 2 4
v -3.5 0 4
v -3.5 2 4
v 4.5 0 4
v 4.5 2 4
v 7.5 0 4
v 7.5 2 4
v -7.5 5 3
v -7.5 6 3
v -6.5 5 3
v -6.5 6 3
v -5.5 5 3
v -5.5 6 3
v -9.5 8 2
v -9.5 9 2
v -8.5 8 2
v -8.5 9 2
v -7.5 4 2
v -7.5 5 2
v -6.5 4 2
v -6.5 5 2
v -5.5 4 2
v -5.5 5 2
v -8.5 11 1
v -8.5 13 1
v -8.5 15 1
v -7.5 11 1
v -7.5 13 1
v -7.5 15 1
v -6.5 5 1
v -6.5 6 1
v -5.5 5 1
v -5.5 6 1
v -9.5 8 -1
v -9.5 9 -1
v -8.5 8 -1
v -8.5 9 -1
v -7.5 5 -2
v -7.5 6 -2
v -6.5 5 -2
v -5.5 5 -2
v -5.5 6 -2
v 7.5 18 -2
v 7.5 19 -2
v 8.5 16 -2
v 8.5 18 -2
v 9.5 16 -2
v 9.5 19 -2
v -9.5 7 -3
v -9.5 10 -3
v -7.5 7 -3
v -7.5 10 -3
v -8.5 11 -5
v -8.5 13 -5
v -8.5 15 -5
v -7.5 11 -5
v -7.5 13 -5
v -7.5 15 -5
v -7.5 17 -7
v -7.5 19 -7
v -6.5 0 -7
v -6.5 2 -7
v -6.5 17 -7
v -6.5 19 -7
v -3.5 0 -7
v -3.5 2 -7
v 4.5 0 -7
v 4.5 2 -7
v 7.5 0 -7
v 7.5 2 -7
v -7.5 2 -8
v -7.5 4 -8
v -7.5 16 -8
v -6.5 3 -8
v -6.5 4 -8
v -6.5 5 -8
v -6.5 6 -8
v -6.5 7 -8
v -5.5 4 -8
v -5.5 5 -8
v -5.5 16 -8
v -5.5 17 -8
v -5.5 18 -8
v -4.5 3 -8
v -4.5 4 -8
v -4.5 6 -8
v -4.5 7 -8
v -1.5 4 -8
v -1.5 5 -8
v -0.5 4 -8
v -0.5 5 -8
v 0.5 3 -8
v 0.5 4 -8
v 1.5 3 -8
v 1.5 4 -8
v 1.5 5 -8
v 1.5 6 -8
v 2.5 4 -8
v 2.5 5 -8
v 2.5 6 -8
v 3.5 4 -8
v 3.5 5 -8
v 4.5 4 -8
v 4.5 5 -8
v 5.5 5 -8
v 5.5 6 -8
v 6.5 5 -8
v 6.5 6 -8
v 7.5 5 -8
v 7.5 7 -8
v 8.5 2 -8
v 8.5 7 -8
v 8.5 18 -8
v -7.5 16 -10
v -7.5 20 -10
v -5.5 16 -10
v -5.5 20 -10
v -6.5 0 7
v -3.5 0 7
v 4.5 0 7
v 7.5 0 7
v -6.5 0 4
v -3.5 0 4
v 4.5 0 4
v 7.5 0 4
v -6.5 0 -4
v -3.5 0 -4
v 4.5 0 -4
v 7.5 0 -4
v -6.5 0 -7
v -3.5 0 -7
v 4.5 0 -7
v 7.5 0 -7
v -7.5 2 8
v 8.5 2 8
v -6.5 2 7
v -3.5 2 7
v 4.5 2 7
v 7.5 2 7
v -6.5 2 4
v -3.5 2 4
v 4.5 2 4
v 7.5 2 4
v -6.5 2 -4
v -3.5 2 -4
v 4.5 2 -4
v 7.5 2 -4
v -6.5 2 -7
v -3.5 2 -7
v 4.5 2 -7
v 7.5 2 -7
v -7.5 2 -8
v 8.5 2 -8
v -7.5 5 2
v -6.5 5 2
v -5.5 5 2
v -6.5 5 1
v -5.5 5 1
v -6.5 5 -1
v -5.5 5 -1
v -7.5 5 -2
v -6.5 5 -2
v -5.5 5 -2
v -7.5 6 3
v -6.5 6 3
v -5.5 6 3
v -7.5 6 2
v -5.5 6 2
v -6.5 6 1
v -5.5 6 1
v -6.5 6 -1
v -5.5 6 -1
v -7.5 6 -2
v -5.5 6 -2
v -7.5 6 -3
v -6.5 6 -3
v -5.5 6 -3
v -9.5 7 3
v -7.5 7 3
v -9.5 7 -3
v -7.5 7 -3
v -9.5 9 2
v -8.5 9 2
v -9.5 9 1
v -8.5 9 1
v -9.5 9 -1
v -8.5 9 -1
v -9.5 9 -2
v -8.5 9 -2
v -8.5 11 5
v -7.5 11 5
v -8.5 11 3
v -7.5 11 3
v -8.5 11 1
v -7.5 11 1
v -8.5 11 -1
v -7.5 11 -1
v -8.5 11 -3
v -7.5 11 -3
v -8.5 11 -5
v -7.5 11 -5
v -7.5 16 10
v -5.5 16 10
v -7.5 16 8
v -5.5 16 8
v 8.5 16 1
v 9.5 16 1
v 8.5 16 -2
v 9.5 16 -2
v -7.5 16 -8
v -5.5 16 -8
v -7.5 16 -10
v -5.5 16 -10
v -7.5 19 9
v -6.5 19 9
v -7.5 19 7
v -6.5 19 7
v -7.5 19 -7
v -6.5 19 -7
v -7.5 19 -9
v -6.5 19 -9
v -7.5 4 2
v -6.5 4 2
v -5.5 4 2
v -7.5 4 -2
v -6.5 4 -2
v -5.5 4 -2
v -7.5 5 3
v -6.5 5 3
v -5.5 5 3
v -7.5 5 2
v -6.5 5 2
v -5.5 5 2
v -7.5 5 -2
v -6.5 5 -2
v -5.5 5 -2
v -7.5 5 -3
v -6.5 5 -3
v -5.5 5 -3
v -9.5 8 2
v -8.5 8 2
v -9.5 8 1
v -8.5 8 1
v -9.5 8 -1
v -8.5 8 -1
v -9.5 8 -2
v -8.5 8 -2
v -9.5 10 3
v -7.5 10 3
v -9.5 10 -3
v -7.5 10 -3
v -8.5 15 5
v -7.5 15 5
v -8.5 15 1
v -7.5 15 1
v -8.5 15 -1
v -7.5 15 -1
v -8.5 15 -5
v -7.5 15 -5
v -7.5 17 9
v -6.5 17 9
v -7.5 17 7
v -6.5 17 7
v -7.5 17 -7
v -6.5 17 -7
v -7.5 17 -9
v -6.5 17 -9
v -5.5 18 8
v 8.5 18 8
v -5.5 18 7
v -7.5 18 6
v -5.5 18 6
v 8.5 18 1
v 9.5 18 1
v 7.5 18 -0
v 9.5 18 -0
v 7.5 18 -2
v 8.5 18 -2
v -7.5 18 -6
v -5.5 18 -6
v -5.5 18 -7
v -5.5 18 -8
v 8.5 18 -8
v 7.5 19 -0
v 9.5 19 -0
v 7.5 19 -2
v 9.5 19 -2
v -7.5 20 10
v -5.5 20 10
v -7.5 20 6
v -5.5 20 6
v -7.5 20 -6
v -5.5 20 -6
v -7.5 20 -10
v -5.5 20 -10

# faces
f 3/3/1 2/3/1 1/3/1
f 4/3/1 2/3/1 3/3/1
f 5/3/1 2/3/1 4/3/1
f 6/3/1 2/3/1 5/3/1
f 7/3/1 3/3/1 1/3/1
f 8/3/1 5/3/1 4/3/1
f 9/3/1 5/3/1 8/3/1
f 10/3/1 2/3/1 6/3/1
f 11/3/1 9/3/1 8/3/1
f 11/3/1 10/3/1 9/3/1
f 11/3/1 7/3/1 1/3/1
f 11/3/1 8/3/1 7/3/1
f 12/3/1 2/3/1 10/3/1
f 12/3/1 10/3/1 11/3/1
f 17/4/1 14/4/1 13/4/1
f 18/4/1 14/4/1 17/4/1
f 19/4/1 16/4/1 15/4/1
f 20/4/1 16/4/1 19/4/1
f 27/2/1 22/2/1 21/2/1
f 28/1/1 23/1/1 22/1/1
f 28/2/1 22/2/1 27/2/1
f 29/1/1 23/1/1 28/1/1
f 30/2/1 25/2/1 24/2/1
f 31/1/1 26/1/1 25/1/1
f 31/2/1 25/2/1 30/2/1
f 32/1/1 26/1/1 31/1/1
f 33/3/1 29/3/1 28/3/1
f 33/3/1 28/3/1 27/3/1
f 34/3/1 29/3/1 33/3/1
f 35/3/1 32/3/1 31/3/1
f 35/3/1 31/3/1 30/3/1
f 36/3/1 32/3/1 35/3/1
f 39/4/1 38/4/1 37/4/1
f 40/4/1 38/4/1 39/4/1
f 41/4/1 38/4/1 40/4/1
f 42/4/1 38/4/1 41/4/1
f 43/4/1 39/4/1 37/4/1
f 44/3/1 40/3/1 39/3/1
f 44/4/1 39/4/1 43/4/1
f 45/4/1 41/4/1 40/4/1
f 45/3/1 40/3/1 44/3/1
f 46/4/1 41/4/1 45/4/1
f 47/4/1 41/4/1 46/4/1
f 48/3/1 42/3/1 41/3/1
f 48/4/1 41/4/1 47/4/1
f 49/3/1 42/3/1 48/3/1
f 50/3/1 42/3/1 49/3/1
f 51/4/1 38/4/1 42/4/1
f 51/3/1 42/3/1 50/3/1
f 52/4/1 38/4/1 51/4/1
f 53/4/1 38/4/1 52/4/1
f 54/4/1 38/4/1 53/4/1
f 55/3/1 44/3/1 43/3/1
f 55/3/1 45/3/1 44/3/1
f 55/3/1 46/3/1 45/3/1
f 56/3/1 46/3/1 55/3/1
f 57/4/1 47/4/1 46/4/1
f 57/3/1 46/3/1 56/3/1
f 58/3/1 48/3/1 47/3/1
f 58/4/1 47/4/1 57/4/1
f 58/3/1 49/3/1 48/3/1
f 59/3/1 49/3/1 58/3/1
f 60/3/1 49/3/1 59/3/1
f 61/3/1 52/3/1 51/3/1
f 61/3/1 51/3/1 50/3/1
f 62/3/1 52/3/1 61/3/1
f 63/4/1 53/4/1 52/4/1
f 63/3/1 52/3/1 62/3/1
f 64/3/1 54/3/1 53/3/1
f 64/4/1 53/4/1 63/4/1
f 65/4/1 56/4/1 55/4/1
f 65/3/1 57/3/1 56/3/1
f 65/3/1 59/3/1 58/3/1
f 65/3/1 58/3/1 57/3/1
f 66/3/1 59/3/1 65/3/1
f 67/3/1 59/3/1 66/3/1
f 68/2/1 61/2/1 60/2/1
f 69/2/1 61/2/1 68/2/1
f 70/3/1 63/3/1 62/3/1
f 70/3/1 64/3/1 63/3/1
f 71/3/1 64/3/1 70/3/1
f 72/3/1 64/3/1 71/3/1
f 73/3/1 55/3/1 43/3/1
f 73/4/1 65/4/1 55/4/1
f 73/4/1 66/4/1 65/4/1
f 74/3/1 69/3/1 68/3/1
f 74/4/1 66/4/1 73/4/1
f 74/3/1 68/3/1 67/3/1
f 74/3/1 70/3/1 69/3/1
f 74/3/1 67/3/1 66/3/1
f 74/3/1 71/3/1 70/3/1
f 75/3/1 71/3/1 74/3/1
f 76/3/1 71/3/1 75/3/1
f 77/4/1 72/4/1 71/4/1
f 77/3/1 71/3/1 76/3/1
f 78/3/1 64/3/1 72/3/1
f 78/4/1 72/4/1 77/4/1
f 79/3/1 74/3/1 73/3/1
f 79/3/1 75/3/1 74/3/1
f 80/3/1 77/3/1 76/3/1
f 80/3/1 78/3/1 77/3/1
f 81/3/1 79/3/1 73/3/1
f 81/3/1 80/3/1 79/3/1
f 82/3/1 80/3/1 81/3/1
f 83/3/1 80/3/1 82/3/1
f 84/3/1 80/3/1 83/3/1
f 85/3/1 78/3/1 80/3/1
f 85/3/1 80/3/1 84/3/1
f 86/3/1 78/3/1 85/3/1
f 87/3/1 81/3/1 73/3/1
f 88/3/1 84/3/1 83/3/1
f 89/3/1 84/3/1 88/3/1
f 90/3/1 78/3/1 86/3/1
f 91/3/1 87/3/1 73/3/1
f 92/3/1 89/3/1 88/3/1
f 93/3/1 89/3/1 92/3/1
f 94/3/1 78/3/1 90/3/1
f 96/3/1 73/3/1 43/3/1
f 96/3/1 94/3/1 93/3/1
f 96/3/1 93/3/1 92/3/1
f 96/3/1 91/3/1 73/3/1
f 96/3/1 92/3/1 91/3/1
f 97/3/1 78/3/1 94/3/1
f 97/3/1 54/3/1 64/3/1
f 97/3/1 94/3/1 96/3/1
f 97/3/1 64/3/1 78/3/1
f 99/3/1 97/3/1 96/3/1
f 99/3/1 98/3/1 97/3/1
f 99/3/1 96/3/1 95/3/1
f 100/3/1 98/3/1 99/3/1
f 101/3/1 98/3/1 100/3/1
f 102/3/1 98/3/1 101/3/1
f 103/3/1 101/3/1 100/3/1
f 104/3/1 101/3/1 103/3/1
f 105/3/1 99/3/1 95/3/1
f 106/3/1 103/3/1 100/3/1
f 107/3/1 101/3/1 104/3/1
f 108/3/1 98/3/1 102/3/1
f 109/3/1 106/3/1 105/3/1
f 109/3/1 105/3/1 95/3/1
f 110/3/1 103/3/1 106/3/1
f 110/3/1 106/3/1 109/3/1
f 111/3/1 108/3/1 107/3/1
f 111/3/1 107/3/1 104/3/1
f 112/3/1 98/3/1 108/3/1
f 112/3/1 108/3/1 111/3/1
f 117/4/1 114/4/1 113/4/1
f 118/4/1 114/4/1 117/4/1
f 119/4/1 116/4/1 115/4/1
f 120/4/1 116/4/1 119/4/1
f 125/4/1 122/4/1 121/4/1
f 126/4/1 122/4/1 125/4/1
f 127/4/1 124/4/1 123/4/1
f 128/4/1 124/4/1 127/4/1
f 132/4/1 130/4/1 129/4/1
f 133/4/1 130/4/1 132/4/1
f 134/4/1 130/4/1 133/4/1
f 135/4/1 130/4/1 134/4/1
f 137/4/1 132/4/1 131/4/1
f 138/4/1 132/4/1 137/4/1
f 139/4/1 134/4/1 133/4/1
f 140/4/1 134/4/1 139/4/1
f 141/4/1 136/4/1 135/4/1
f 142/4/1 136/4/1 141/4/1
f 147/4/1 144/4/1 143/4/1
f 148/4/1 144/4/1 147/4/1
f 149/4/1 146/4/1 145/4/1
f 150/4/1 146/4/1 149/4/1
f 153/3/1 152/3/1 151/3/1
f 154/3/1 152/3/1 153/3/1
f 155/2/2 156/2/2 157/2/2
f 157/2/2 156/2/2 158/2/2
f 159/3/2 160/3/2 163/3/2
f 163/3/2 160/3/2 164/3/2
f 161/3/2 162/3/2 165/3/2
f 165/3/2 162/3/2 166/3/2
f 163/4/2 164/4/2 167/4/2
f 165/4/2 166/4/2 172/4/2
f 159/3/2 163/3/2 173/3/2
f 163/4/2 167/4/2 173/4/2
f 167/4/2 168/4/2 173/4/2
f 168/3/2 169/3/2 174/3/2
f 173/4/2 168/4/2 174/4/2
f 171/4/2 172/4/2 175/4/2
f 170/3/2 171/3/2 175/3/2
f 166/3/2 162/3/2 176/3/2
f 175/4/2 172/4/2 176/4/2
f 172/4/2 166/4/2 176/4/2
f 173/3/2 174/3/2 177/3/2
f 159/3/2 173/3/2 177/3/2
f 174/3/2 169/3/2 178/3/2
f 177/3/2 174/3/2 178/3/2
f 170/3/2 175/3/2 179/3/2
f 175/3/2 176/3/2 179/3/2
f 176/3/2 162/3/2 180/3/2
f 179/3/2 176/3/2 180/3/2
f 181/4/2 182/4/2 185/4/2
f 185/4/2 182/4/2 186/4/2
f 183/4/2 184/4/2 187/4/2
f 187/4/2 184/4/2 188/4/2
f 189/4/2 190/4/2 193/4/2
f 193/4/2 190/4/2 194/4/2
f 191/4/2 192/4/2 195/4/2
f 195/4/2 192/4/2 196/4/2
f 197/4/2 198/4/2 199/4/2
f 199/4/2 198/4/2 200/4/2
f 200/4/2 198/4/2 201/4/2
f 201/4/2 198/4/2 202/4/2
f 197/4/2 199/4/2 203/4/2
f 203/4/2 199/4/2 204/4/2
f 199/3/2 200/3/2 205/3/2
f 200/4/2 201/4/2 205/4/2
f 205/4/2 201/4/2 206/4/2
f 206/4/2 201/4/2 207/4/2
f 207/4/2 201/4/2 208/4/2
f 201/3/2 202/3/2 209/3/2
f 208/4/2 201/4/2 209/4/2
f 202/4/2 198/4/2 210/4/2
f 209/3/2 202/3/2 210/3/2
f 210/4/2 198/4/2 211/4/2
f 203/3/2 204/3/2 212/3/2
f 204/4/2 199/4/2 213/4/2
f 212/3/2 204/3/2 213/3/2
f 199/3/2 205/3/2 214/3/2
f 213/4/2 199/4/2 214/4/2
f 205/3/2 206/3/2 214/3/2
f 206/4/2 207/4/2 215/4/2
f 214/3/2 206/3/2 215/3/2
f 207/3/2 208/3/2 216/3/2
f 215/4/2 207/4/2 216/4/2
f 208/4/2 209/4/2 217/4/2
f 216/3/2 208/3/2 217/3/2
f 209/4/2 210/4/2 217/4/2
f 210/3/2 211/3/2 218/3/2
f 217/4/2 210/4/2 218/4/2
f 203/3/2 212/3/2 219/3/2
f 212/4/2 213/4/2 219/4/2
f 215/3/2 216/3/2 220/3/2
f 219/4/2 213/4/2 220/4/2
f 214/3/2 215/3/2 220/3/2
f 213/3/2 214/3/2 220/3/2
f 216/3/2 217/3/2 220/3/2
f 217/3/2 218/3/2 220/3/2
f 220/3/2 218/3/2 221/3/2
f 221/3/2 218/3/2 222/3/2
f 219/3/2 220/3/2 223/3/2
f 220/3/2 221/3/2 223/3/2
f 221/4/2 222/4/2 223/4/2
f 222/3/2 218/3/2 224/3/2
f 223/4/2 222/4/2 224/4/2
f 218/3/2 211/3/2 225/3/2
f 224/3/2 218/3/2 225/3/2
f 211/4/2 198/4/2 225/4/2
f 225/4/2 198/4/2 226/4/2
f 223/3/2 224/3/2 227/3/2
f 224/3/2 225/3/2 227/3/2
f 225/3/2 226/3/2 227/3/2
f 227/3/2 226/3/2 228/3/2
f 203/3/2 219/3/2 229/3/2
f 219/3/2 223/3/2 229/3/2
f 223/3/2 227/3/2 229/3/2
f 229/3/2 227/3/2 230/3/2
f 228/3/2 226/3/2 231/3/2
f 231/3/2 226/3/2 232/3/2
f 233/3/2 234/3/2 235/3/2
f 235/3/2 234/3/2 236/3/2
f 236/3/2 234/3/2 237/3/2
f 237/3/2 234/3/2 238/3/2
f 241/3/3 240/3/3 239/3/3
f 242/3/3 240/3/3 241/3/3
f 246/4/3 244/4/3 243/4/3
f 246/3/3 245/3/3 244/3/3
f 247/3/3 245/3/3 246/3/3
f 248/3/3 245/3/3 247/3/3
f 249/3/3 245/3/3 248/3/3
f 250/4/3 246/4/3 243/4/3
f 250/4/3 247/4/3 246/4/3
f 251/3/3 248/3/3 247/3/3
f 251/4/3 247/4/3 250/4/3
f 252/4/3 249/4/3 248/4/3
f 252/3/3 248/3/3 251/3/3
f 253/3/3 245/3/3 249/3/3
f 253/4/3 249/4/3 252/4/3
f 254/3/3 245/3/3 253/3/3
f 257/3/3 252/3/3 251/3/3
f 257/3/3 256/3/3 255/3/3
f 257/3/3 255/3/3 254/3/3
f 257/3/3 254/3/3 253/3/3
f 257/3/3 253/3/3 252/3/3
f 257/4/3 250/4/3 243/4/3
f 257/3/3 251/3/3 250/3/3
f 258/3/3 256/3/3 257/3/3
f 259/4/3 257/4/3 243/4/3
f 259/4/3 258/4/3 257/4/3
f 260/3/3 256/3/3 258/3/3
f 260/4/3 258/4/3 259/4/3
f 261/3/3 256/3/3 260/3/3
f 262/3/3 260/3/3 259/3/3
f 262/4/3 261/4/3 260/4/3
f 263/3/3 256/3/3 261/3/3
f 263/4/3 261/4/3 262/4/3
f 264/4/3 259/4/3 243/4/3
f 264/3/3 262/3/3 259/3/3
f 264/3/3 263/3/3 262/3/3
f 265/3/3 263/3/3 264/3/3
f 266/4/3 264/4/3 243/4/3
f 266/4/3 265/4/3 264/4/3
f 267/3/3 263/3/3 265/3/3
f 267/4/3 265/4/3 266/4/3
f 268/4/3 266/4/3 243/4/3
f 269/3/3 267/3/3 266/3/3
f 269/4/3 266/4/3 268/4/3
f 270/3/3 263/3/3 267/3/3
f 270/3/3 267/3/3 269/3/3
f 270/3/3 269/3/3 268/3/3
f 271/3/3 256/3/3 263/3/3
f 271/3/3 263/3/3 270/3/3
f 272/3/3 270/3/3 268/3/3
f 272/4/3 268/4/3 243/4/3
f 273/4/3 271/4/3 270/4/3
f 273/3/3 270/3/3 272/3/3
f 274/3/3 256/3/3 271/3/3
f 274/4/3 271/4/3 273/4/3
f 275/4/3 273/4/3 272/4/3
f 276/3/3 274/3/3 273/3/3
f 276/4/3 273/4/3 275/4/3
f 277/3/3 256/3/3 274/3/3
f 277/3/3 274/3/3 276/3/3
f 278/3/3 256/3/3 277/3/3
f 279/3/3 276/3/3 275/3/3
f 279/4/3 275/4/3 272/4/3
f 279/3/3 277/3/3 276/3/3
f 280/3/3 277/3/3 279/3/3
f 281/4/3 278/4/3 277/4/3
f 281/3/3 277/3/3 280/3/3
f 282/3/3 256/3/3 278/3/3
f 282/4/3 278/4/3 281/4/3
f 283/3/3 281/3/3 280/3/3
f 283/4/3 280/4/3 279/4/3
f 283/3/3 282/3/3 281/3/3
f 284/3/3 282/3/3 283/3/3
f 285/4/3 272/4/3 243/4/3
f 285/4/3 279/4/3 272/4/3
f 285/4/3 284/4/3 283/4/3
f 285/4/3 283/4/3 279/4/3
f 286/3/3 282/3/3 284/3/3
f 286/4/3 284/4/3 285/4/3
f 287/4/3 285/4/3 243/4/3
f 287/3/3 286/3/3 285/3/3
f 288/3/3 286/3/3 287/3/3
f 289/4/3 287/4/3 243/4/3
f 289/4/3 288/4/3 287/4/3
f 290/3/3 286/3/3 288/3/3
f 290/4/3 288/4/3 289/4/3
f 291/3/3 256/3/3 282/3/3
f 291/3/3 286/3/3 290/3/3
f 291/3/3 282/3/3 286/3/3
f 296/3/3 293/3/3 292/3/3
f 297/3/3 293/3/3 296/3/3
f 298/4/3 295/4/3 294/4/3
f 299/4/3 295/4/3 298/4/3
f 302/4/3 301/4/3 300/4/3
f 303/4/3 301/4/3 302/4/3
f 307/2/3 305/2/3 304/2/3
f 308/3/3 306/3/3 305/3/3
f 308/2/3 305/2/3 307/2/3
f 309/3/3 306/3/3 308/3/3
f 312/3/3 311/3/3 310/3/3
f 313/3/3 311/3/3 312/3/3
f 316/2/3 315/2/3 314/2/3
f 317/2/3 315/2/3 316/2/3
f 318/2/3 315/2/3 317/2/3
f 321/3/3 320/3/3 319/3/3
f 322/3/3 320/3/3 321/3/3
f 325/3/3 324/3/3 323/3/3
f 326/3/3 324/3/3 325/3/3
f 329/3/3 328/3/3 327/3/3
f 330/3/3 328/3/3 329/3/3
f 334/2/3 332/2/3 331/2/3
f 335/3/3 333/3/3 332/3/3
f 335/2/3 332/2/3 334/2/3
f 336/3/3 333/3/3 335/3/3
f 339/2/3 338/2/3 337/2/3
f 340/2/3 338/2/3 339/2/3
f 343/3/3 342/3/3 341/3/3
f 344/3/3 342/3/3 343/3/3
f 347/3/3 346/3/3 345/3/3
f 348/3/3 346/3/3 347/3/3
f 349/4/3 348/4/3 347/4/3
f 350/4/3 348/4/3 349/4/3
f 353/3/3 352/3/3 351/3/3
f 354/3/3 352/3/3 353/3/3
f 355/4/3 354/4/3 353/4/3
f 356/4/3 354/4/3 355/4/3
f 359/4/3 358/4/3 357/4/3
f 360/4/3 358/4/3 359/4/3
f 363/4/3 362/4/3 361/4/3
f 364/4/3 362/4/3 363/4/3
f 367/3/3 366/3/3 365/3/3
f 368/3/3 366/3/3 367/3/3
f 371/3/3 370/3/3 369/3/3
f 372/3/3 370/3/3 371/3/3
f 373/3/4 374/3/4 375/3/4
f 375/3/4 374/3/4 376/3/4
f 377/3/4 378/3/4 379/3/4
f 379/3/4 378/3/4 380/3/4
f 381/4/4 382/4/4 383/4/4
f 383/4/4 382/4/4 384/4/4
f 385/4/4 386/4/4 387/4/4
f 387/4/4 386/4/4 388/4/4
f 389/3/4 390/3/4 391/3/4
f 391/3/4 390/3/4 392/3/4
f 391/4/4 392/4/4 393/4/4
f 393/4/4 392/4/4 394/4/4
f 395/3/4 396/3/4 397/3/4
f 397/3/4 396/3/4 398/3/4
f 399/3/4 400/3/4 401/3/4
f 401/3/4 400/3/4 402/3/4
f 401/4/4 402/4/4 403/4/4
f 403/4/4 402/4/4 404/4/4
f 405/1/4 406/1/4 408/1/4
f 406/3/4 407/3/4 409/3/4
f 408/1/4 406/1/4 409/1/4
f 409/3/4 407/3/4 410/3/4
f 411/2/4 412/2/4 413/2/4
f 413/2/4 412/2/4 414/2/4
f 415/3/4 416/3/4 417/3/4
f 417/3/4 416/3/4 418/3/4
f 419/2/4 420/2/4 421/2/4
f 421/2/4 420/2/4 422/2/4
f 422/2/4 420/2/4 423/2/4
f 424/3/4 425/3/4 427/3/4
f 426/3/4 427/3/4 428/3/4
f 427/3/4 425/3/4 429/3/4
f 428/3/4 427/3/4 429/3/4
f 430/3/4 431/3/4 432/3/4
f 432/3/4 431/3/4 433/3/4
f 434/1/4 435/1/4 437/1/4
f 435/3/4 436/3/4 438/3/4
f 437/1/4 435/1/4 438/1/4
f 438/3/4 436/3/4 439/3/4
f 440/3/4 441/3/4 444/3/4
f 444/3/4 441/3/4 445/3/4
f 442/4/4 443/4/4 446/4/4
f 446/4/4 443/4/4 447/4/4
f 448/4/4 449/4/4 450/4/4
f 450/4/4 449/4/4 451/4/4
f 452/4/4 453/4/4 455/4/4
f 453/3/4 454/3/4 456/3/4
f 455/4/4 453/4/4 456/4/4
f 456/3/4 454/3/4 457/3/4
f 457/3/4 454/3/4 458/3/4
f 458/3/4 454/3/4 459/3/4
f 455/3/4 456/3/4 460/3/4
f 456/4/4 457/4/4 460/4/4
f 457/3/4 458/3/4 461/3/4
f 460/4/4 457/4/4 461/4/4
f 459/3/4 454/3/4 462/3/4
f 452/4/4 455/4/4 465/4/4
f 455/3/4 460/3/4 465/3/4
f 460/3/4 461/3/4 465/3/4
f 465/3/4 461/3/4 466/3/4
f 461/3/4 458/3/4 467/3/4
f 466/3/4 461/3/4 467/3/4
f 458/4/4 459/4/4 467/4/4
f 463/3/4 464/3/4 468/3/4
f 467/4/4 459/4/4 468/4/4
f 462/3/4 463/3/4 468/3/4
f 459/3/4 462/3/4 468/3/4
f 466/3/4 467/3/4 469/3/4
f 465/4/4 466/4/4 469/4/4
f 467/3/4 468/3/4 469/3/4
f 469/3/4 468/3/4 470/3/4
f 465/4/4 469/4/4 471/4/4
f 469/4/4 470/4/4 471/4/4
f 470/3/4 468/3/4 472/3/4
f 471/4/4 470/4/4 472/4/4
f 452/4/4 465/4/4 473/4/4
f 465/4/4 471/4/4 473/4/4
f 471/3/4 472/3/4 474/3/4
f 473/4/4 471/4/4 474/4/4
f 452/4/4 473/4/4 475/4/4
f 473/3/4 474/3/4 475/3/4
f 474/3/4 472/3/4 476/3/4
f 475/3/4 474/3/4 476/3/4
f 472/3/4 468/3/4 477/3/4
f 476/3/4 472/3/4 477/3/4
f 477/3/4 468/3/4 478/3/4
f 475/4/4 476/4/4 479/4/4
f 476/3/4 477/3/4 479/3/4
f 477/4/4 478/4/4 480/4/4
f 479/3/4 477/3/4 480/3/4
f 478/3/4 468/3/4 481/3/4
f 480/4/4 478/4/4 481/4/4
f 479/4/4 480/4/4 482/4/4
f 475/4/4 479/4/4 482/4/4
f 480/3/4 481/3/4 483/3/4
f 482/4/4 480/4/4 483/4/4
f 475/4/4 482/4/4 484/4/4
f 482/3/4 483/3/4 484/3/4
f 483/3/4 481/3/4 485/3/4
f 484/3/4 483/3/4 485/3/4
f 484/4/4 485/4/4 486/4/4
f 485/3/4 481/3/4 486/3/4
f 481/3/4 468/3/4 487/3/4
f 486/3/4 481/3/4 487/3/4
f 484/4/4 486/4/4 488/4/4
f 486/4/4 487/4/4 488/4/4
f 487/3/4 468/3/4 489/3/4
f 488/4/4 487/4/4 489/4/4
f 484/4/4 488/4/4 490/4/4
f 488/3/4 489/3/4 490/3/4
f 468/3/4 464/3/4 491/3/4
f 490/3/4 489/3/4 491/3/4
f 489/3/4 468/3/4 491/3/4
f 484/4/4 490/4/4 492/4/4
f 475/4/4 484/4/4 492/4/4
f 490/4/4 491/4/4 492/4/4
f 452/4/4 475/4/4 492/4/4
f 491/3/4 464/3/4 493/3/4
f 492/4/4 491/4/4 493/4/4
f 493/3/4 464/3/4 494/3/4
f 495/3/4 496/3/4 497/3/4
f 497/3/4 496/3/4 498/3/4
f 503/4/5 500/4/5 499/4/5
f 504/4/5 500/4/5 503/4/5
f 505/4/5 502/4/5 501/4/5
f 506/4/5 502/4/5 505/4/5
f 511/4/5 508/4/5 507/4/5
f 512/4/5 508/4/5 511/4/5
f 513/4/5 510/4/5 509/4/5
f 514/4/5 510/4/5 513/4/5
f 517/4/5 516/4/5 515/4/5
f 518/4/5 516/4/5 517/4/5
f 519/4/5 516/4/5 518/4/5
f 520/4/5 516/4/5 519/4/5
f 521/4/5 517/4/5 515/4/5
f 522/4/5 519/4/5 518/4/5
f 523/4/5 519/4/5 522/4/5
f 524/4/5 516/4/5 520/4/5
f 525/4/5 523/4/5 522/4/5
f 525/4/5 524/4/5 523/4/5
f 525/4/5 521/4/5 515/4/5
f 525/4/5 522/4/5 521/4/5
f 526/4/5 524/4/5 525/4/5
f 527/4/5 524/4/5 526/4/5
f 528/4/5 516/4/5 524/4/5
f 528/4/5 524/4/5 527/4/5
f 529/4/5 525/4/5 515/4/5
f 530/4/5 527/4/5 526/4/5
f 531/4/5 527/4/5 530/4/5
f 532/4/5 516/4/5 528/4/5
f 533/4/5 529/4/5 515/4/5
f 533/4/5 532/4/5 531/4/5
f 533/4/5 531/4/5 530/4/5
f 533/4/5 530/4/5 529/4/5
f 534/4/5 516/4/5 532/4/5
f 534/4/5 532/4/5 533/4/5
f 538/2/5 536/2/5 535/2/5
f 538/2/5 537/2/5 536/2/5
f 539/2/5 537/2/5 538/2/5
f 540/2/5 538/2/5 535/2/5
f 542/2/5 540/2/5 535/2/5
f 542/2/5 541/2/5 540/2/5
f 543/2/5 541/2/5 542/2/5
f 544/2/5 541/2/5 543/2/5
f 548/3/5 546/3/5 545/3/5
f 548/3/5 547/3/5 546/3/5
f 549/3/5 547/3/5 548/3/5
f 552/3/5 551/3/5 550/3/5
f 553/3/5 551/3/5 552/3/5
f 556/3/5 555/3/5 554/3/5
f 557/3/5 555/3/5 556/3/5
f 558/3/5 555/3/5 557/3/5
f 561/3/5 560/3/5 559/3/5
f 562/3/5 560/3/5 561/3/5
f 565/3/5 564/3/5 563/3/5
f 566/3/5 564/3/5 565/3/5
f 569/3/5 568/3/5 567/3/5
f 570/3/5 568/3/5 569/3/5
f 573/2/5 572/2/5 571/2/5
f 574/2/5 572/2/5 573/2/5
f 575/1/5 574/1/5 573/1/5
f 576/1/5 574/1/5 575/1/5
f 579/2/5 578/2/5 577/2/5
f 580/2/5 578/2/5 579/2/5
f 581/1/5 580/1/5 579/1/5
f 582/1/5 580/1/5 581/1/5
f 585/3/5 584/3/5 583/3/5
f 586/3/5 584/3/5 585/3/5
f 589/3/5 588/3/5 587/3/5
f 590/3/5 588/3/5 589/3/5
f 593/3/5 592/3/5 591/3/5
f 594/3/5 592/3/5 593/3/5
f 597/3/5 596/3/5 595/3/5
f 598/3/5 596/3/5 597/3/5
f 601/3/5 600/3/5 599/3/5
f 602/3/5 600/3/5 601/3/5
f 603/3/6 604/3/6 606/3/6
f 604/4/6 605/4/6 607/4/6
f 606/3/6 604/3/6 607/3/6
f 607/4/6 605/4/6 608/4/6
f 609/3/6 610/3/6 612/3/6
f 610/4/6 611/4/6 613/4/6
f 612/3/6 610/3/6 613/3/6
f 613/4/6 611/4/6 614/4/6
f 615/3/6 616/3/6 618/3/6
f 616/4/6 617/4/6 619/4/6
f 618/3/6 616/3/6 619/3/6
f 619/4/6 617/4/6 620/4/6
f 621/3/6 622/3/6 623/3/6
f 623/3/6 622/3/6 624/3/6
f 625/3/6 626/3/6 627/3/6
f 627/3/6 626/3/6 628/3/6
f 629/3/6 630/3/6 631/3/6
f 631/3/6 630/3/6 632/3/6
f 633/3/6 634/3/6 635/3/6
f 635/3/6 634/3/6 636/3/6
f 637/3/6 638/3/6 639/3/6
f 639/3/6 638/3/6 640/3/6
f 641/3/6 642/3/6 643/3/6
f 643/3/6 642/3/6 644/3/6
f 645/3/6 646/3/6 647/3/6
f 647/3/6 646/3/6 648/3/6
f 649/3/6 650/3/6 651/3/6
f 651/3/6 650/3/6 653/3/6
f 653/3/6 650/3/6 654/3/6
f 652/3/6 653/3/6 654/3/6
f 652/3/6 654/3/6 656/3/6
f 654/3/6 655/3/6 656/3/6
f 656/3/6 655/3/6 657/3/6
f 652/3/6 656/3/6 658/3/6
f 652/3/6 658/3/6 660/3/6
f 658/3/6 659/3/6 660/3/6
f 660/3/6 659/3/6 661/3/6
f 661/3/6 659/3/6 662/3/6
f 662/3/6 659/3/6 663/3/6
f 663/3/6 659/3/6 664/3/6
f 665/3/6 666/3/6 667/3/6
f 667/3/6 666/3/6 668/3/6
f 669/3/6 670/3/6 671/3/6
f 671/3/6 670/3/6 672/3/6
f 673/3/6 674/3/6 675/3/6
f 675/3/6 674/3/6 676/3/6
